<?xml version="1.0" standalone="no"?>
<!DOCTYPE svg PUBLIC "-//W3C//DTD SVG 20010904//EN"
 "http://www.w3.org/TR/2001/REC-SVG-20010904/DTD/svg10.dtd">
<svg version="1.0" xmlns="http://www.w3.org/2000/svg"
 width="1254.000000pt" height="1280.000000pt" viewBox="0 0 1254.000000 1280.000000"
 preserveAspectRatio="xMidYMid meet">
<g transform="translate(0.000000,1280.000000) scale(0.100000,-0.100000)"
fill="#000000" stroke="none">
<path d="M5090 12759 c-60 -54 -100 -79 -127 -79 -13 0 -57 12 -99 26 -58 19
-83 23 -103 16 -17 -6 -34 -5 -50 1 -20 10 -26 7 -43 -16 -14 -19 -29 -27 -49
-27 -16 0 -32 -6 -35 -14 -10 -25 -32 -26 -76 -2 -37 21 -61 24 -184 29 l-142
6 -25 -29 c-28 -30 -44 -34 -187 -44 -107 -8 -132 -18 -155 -69 l-20 -42 -59
3 c-83 4 -154 -19 -196 -63 -63 -66 -115 -80 -188 -49 -42 17 -159 11 -225
-12 -52 -18 -91 -1 -142 60 -52 63 -72 73 -97 49 -10 -11 -21 -37 -25 -59 -8
-59 -101 -222 -158 -279 -41 -42 -67 -57 -145 -87 -52 -20 -113 -39 -135 -42
-22 -4 -60 -17 -85 -30 -43 -22 -45 -24 -42 -62 10 -113 5 -175 -17 -204 -27
-37 -27 -95 -1 -135 25 -38 26 -110 2 -146 -62 -95 -98 -138 -163 -198 -89
-82 -137 -108 -223 -120 -36 -5 -72 -13 -81 -18 -9 -5 -42 -61 -73 -123 -52
-104 -62 -118 -112 -152 -76 -52 -102 -100 -107 -196 -6 -110 -10 -122 -42
-133 -51 -18 -126 -116 -164 -216 -50 -130 -70 -163 -120 -208 -37 -33 -46
-49 -52 -87 -10 -66 17 -141 66 -187 33 -30 41 -45 49 -94 10 -64 3 -93 -30
-120 -34 -28 -21 -54 59 -120 16 -13 20 -23 15 -35 -5 -9 -9 -51 -9 -92 0 -61
-5 -86 -27 -130 -30 -62 -48 -149 -48 -232 0 -62 5 -55 -102 -134 -39 -28 -48
-41 -48 -65 0 -38 14 -65 56 -105 32 -30 34 -35 34 -102 0 -39 -5 -94 -11
-121 -19 -89 13 -145 93 -162 59 -14 108 -53 108 -87 0 -49 12 -71 46 -91 25
-15 43 -40 69 -95 19 -41 35 -82 35 -91 0 -9 9 -15 24 -15 17 0 45 -20 86 -60
61 -58 62 -60 51 -91 -23 -66 -16 -86 57 -163 38 -39 76 -83 85 -98 10 -16 33
-34 52 -42 24 -10 36 -23 41 -43 10 -44 90 -118 181 -169 86 -49 173 -130 173
-162 0 -26 20 -42 51 -42 19 0 34 -9 49 -30 15 -21 30 -30 48 -30 15 0 42 -9
60 -20 18 -11 39 -20 48 -20 18 0 127 54 164 82 15 11 56 23 96 29 42 6 80 18
98 31 38 28 95 32 232 19 114 -10 204 -39 233 -74 17 -22 28 -21 76 3 22 11
51 20 65 20 14 0 49 16 78 35 28 20 65 38 81 41 17 4 38 15 47 25 19 22 62 34
147 44 48 6 59 11 70 34 16 35 57 42 283 48 205 5 259 -3 274 -42 5 -13 22
-31 38 -39 16 -8 43 -31 61 -51 26 -30 31 -44 31 -85 0 -72 12 -92 74 -125
l56 -29 75 37 c70 34 82 37 163 37 49 -1 96 -6 108 -13 36 -20 123 -127 151
-186 41 -82 44 -212 10 -342 -14 -52 -30 -129 -36 -172 -6 -43 -15 -86 -20
-95 -17 -31 -43 -146 -43 -187 0 -57 25 -114 103 -235 78 -121 106 -160 150
-212 18 -21 35 -54 38 -75 5 -29 13 -41 36 -52 35 -16 45 -29 45 -55 0 -11 11
-31 24 -45 34 -37 76 -119 76 -151 0 -19 7 -30 25 -38 32 -15 32 -27 0 -48
-33 -22 -32 -41 10 -100 19 -27 38 -65 41 -84 4 -19 26 -76 50 -126 50 -104
52 -123 22 -172 -31 -51 -29 -105 10 -187 99 -209 111 -291 49 -347 -132 -117
-147 -140 -147 -227 0 -19 -8 -43 -17 -54 -12 -13 -21 -51 -29 -123 -10 -88
-16 -111 -42 -150 -17 -25 -33 -65 -36 -88 -38 -333 -42 -448 -15 -498 6 -11
30 -39 54 -62 29 -28 48 -58 60 -96 10 -30 27 -66 40 -80 31 -35 61 -113 74
-194 15 -83 26 -107 103 -214 69 -96 81 -129 68 -186 -16 -68 -11 -128 16
-217 21 -71 25 -96 20 -159 -5 -61 -2 -87 14 -132 11 -32 20 -74 20 -95 0 -63
36 -219 58 -255 12 -18 32 -54 46 -79 14 -26 40 -55 58 -66 44 -26 98 -157 98
-239 0 -64 17 -110 55 -144 15 -14 38 -46 51 -72 13 -25 35 -63 49 -84 18 -27
25 -50 25 -85 0 -72 -13 -99 -50 -99 -18 0 -33 -6 -36 -15 -12 -29 7 -84 42
-126 23 -27 33 -48 28 -58 -19 -47 -18 -49 41 -66 45 -14 67 -28 105 -68 l47
-50 47 33 c55 37 82 46 187 58 54 7 86 17 108 33 21 16 42 22 66 20 66 -5 120
-3 169 4 30 5 74 3 117 -5 69 -13 69 -13 141 20 54 25 85 33 122 32 42 -1 56
4 78 25 19 18 40 26 72 28 36 3 56 12 98 47 98 81 220 203 244 244 23 39 43
53 102 69 13 4 44 38 74 83 28 42 64 93 79 112 16 19 59 89 97 155 59 104 73
122 103 131 28 10 35 18 41 49 5 21 22 62 39 91 32 57 69 217 69 302 0 59 22
100 79 147 59 48 107 72 182 90 65 15 124 53 147 96 9 16 11 44 7 85 -4 46 0
78 15 125 24 78 25 101 4 141 -9 18 -16 51 -16 75 1 24 -8 66 -18 94 -11 27
-20 60 -20 73 0 12 -11 33 -25 46 -57 54 -13 144 80 161 62 12 92 31 99 67 9
37 286 322 341 349 22 11 64 26 92 33 42 9 68 25 125 77 84 74 87 80 94 130 7
60 12 69 60 108 25 21 57 55 71 76 l25 38 2 298 c2 262 5 302 20 332 22 42 14
76 -22 95 -15 8 -50 36 -78 63 -52 50 -74 101 -74 172 0 17 -9 50 -19 73 -25
57 -42 174 -32 219 5 21 16 47 25 60 32 46 16 108 -43 163 -36 35 -39 62 -11
116 26 52 58 72 115 72 l46 0 -3 41 c-3 37 -7 44 -40 60 -43 21 -46 29 -18 64
19 25 23 39 35 137 5 39 15 58 51 96 24 26 44 52 44 59 0 6 27 39 60 73 34 34
69 81 80 105 12 27 57 81 118 141 54 53 117 124 140 157 85 125 275 300 442
408 56 36 70 52 100 110 28 54 52 82 117 137 88 75 124 126 142 205 13 52 56
129 92 161 29 26 55 81 63 134 15 94 135 352 204 435 43 52 62 105 62 178 0
37 7 84 15 104 19 44 19 100 0 133 -8 14 -14 39 -15 56 0 31 -15 54 -36 54 -7
0 -34 -13 -61 -30 -68 -42 -189 -83 -224 -75 -18 4 -51 -1 -89 -14 -33 -12
-79 -21 -102 -21 -34 0 -49 -6 -76 -32 -33 -33 -34 -33 -135 -34 -82 -1 -118
-6 -182 -27 -83 -28 -153 -34 -185 -17 -10 5 -26 33 -35 62 -28 85 -39 98 -88
98 -47 0 -67 13 -67 45 0 27 18 45 46 45 36 0 49 25 36 68 -6 20 -13 46 -14
57 -2 11 -16 26 -31 33 -15 7 -38 34 -52 60 -69 130 -72 133 -177 156 -21 5
-34 19 -53 55 -18 36 -43 63 -91 98 -36 26 -84 63 -106 80 -22 18 -55 40 -73
49 -35 16 -61 63 -51 90 7 17 -24 162 -54 254 -44 135 -59 160 -97 160 -18 0
-27 8 -35 30 -6 20 -19 32 -36 36 -76 18 -104 86 -112 269 -6 126 -10 147 -38
213 -17 41 -49 104 -71 142 -32 53 -46 69 -70 73 -78 16 -116 93 -96 191 8 44
8 50 -9 60 -36 20 -56 46 -56 69 0 30 -74 171 -111 215 -16 18 -29 37 -29 42
0 5 -22 35 -50 65 -49 54 -50 57 -50 118 0 59 -2 66 -32 93 -67 62 -132 152
-176 243 -38 81 -44 99 -38 137 5 38 -1 59 -49 166 l-54 123 -73 22 c-93 27
-91 27 -125 -1 -16 -14 -41 -28 -56 -31 -15 -4 -35 -21 -46 -41 -30 -50 -59
-60 -134 -46 -140 27 -202 44 -241 67 -24 14 -80 31 -138 41 -90 16 -98 16
-113 0 -22 -22 -31 -20 -52 10 -58 82 -55 80 -155 88 -51 4 -113 9 -136 10
-48 3 -62 16 -62 58 0 30 -32 58 -66 58 -22 0 -47 23 -57 53 -11 29 -62 21
-104 -17 -21 -18 -63 -41 -93 -50 -83 -26 -99 -36 -110 -71 -9 -27 -7 -44 11
-95 35 -101 11 -168 -76 -210 -57 -28 -97 -22 -155 23 -84 63 -92 67 -158 67
-43 0 -80 7 -120 24 -31 13 -74 29 -94 35 -47 15 -91 65 -113 127 -9 27 -20
56 -24 64 -10 19 -81 38 -144 39 -54 1 -83 13 -110 47 -23 29 -68 42 -198 54
-109 10 -142 24 -161 66 -9 20 -17 24 -38 19 -19 -4 -39 2 -68 21 -75 49 -75
121 0 156 21 10 44 31 52 46 8 16 22 34 30 41 9 8 16 28 16 47 0 26 -9 42 -40
73 -35 34 -40 45 -40 84 0 33 7 54 30 85 30 42 37 62 22 62 -5 0 -17 -9 -27
-20 -27 -30 -50 -24 -86 20 -29 36 -89 81 -107 80 -4 -1 -27 -19 -52 -41z
m3385 -6379 c-5 -8 -11 -8 -17 -2 -6 6 -7 16 -3 22 5 8 11 8 17 2 6 -6 7 -16
3 -22z"/>
<path d="M1663 11334 c-3 -8 0 -21 6 -27 10 -9 16 -8 27 7 8 11 14 23 14 28 0
15 -41 8 -47 -8z"/>
<path d="M1602 11216 c-24 -47 -21 -76 7 -76 43 0 78 79 49 108 -21 21 -34 13
-56 -32z"/>
<path d="M1224 11220 c-12 -5 -25 -14 -29 -20 -8 -13 32 -60 50 -60 16 0 51
40 60 68 6 20 3 22 -27 21 -18 0 -43 -4 -54 -9z"/>
<path d="M1365 11149 c-12 -18 4 -57 25 -64 27 -9 40 1 40 30 0 34 -50 60 -65
34z"/>
<path d="M12 9058 c5 -15 48 -24 48 -10 0 10 -23 22 -42 22 -5 0 -8 -6 -6 -12z"/>
<path d="M72 8858 c-14 -14 -16 -54 -3 -63 16 -9 65 40 58 58 -7 20 -38 22
-55 5z"/>
<path d="M5023 6838 c-28 -13 -39 -44 -23 -63 28 -34 80 -2 80 48 0 30 -18 34
-57 15z"/>
<path d="M3920 5570 c0 -5 12 -10 26 -10 14 0 23 4 19 10 -3 6 -15 10 -26 10
-10 0 -19 -4 -19 -10z"/>
<path d="M9800 5073 c0 -4 5 -15 10 -23 8 -13 10 -13 10 2 0 9 -4 20 -10 23
-5 3 -10 3 -10 -2z"/>
<path d="M10380 4090 c0 -5 5 -10 10 -10 6 0 10 5 10 10 0 6 -4 10 -10 10 -5
0 -10 -4 -10 -10z"/>
<path d="M11264 3964 c-39 -41 -41 -49 -14 -64 48 -26 -2 -112 -89 -154 -37
-17 -47 -27 -52 -54 -4 -18 -16 -43 -28 -56 -11 -12 -21 -31 -21 -42 0 -33
-15 -45 -50 -42 -26 2 -36 -2 -45 -18 -18 -35 -36 -54 -54 -54 -9 0 -23 -15
-31 -33 -9 -18 -30 -39 -50 -49 -19 -9 -68 -33 -108 -52 -41 -20 -82 -36 -92
-36 -10 0 -21 -4 -24 -9 -3 -5 -26 -18 -51 -30 -40 -19 -45 -25 -45 -55 0 -24
-10 -46 -35 -76 -38 -46 -69 -132 -69 -197 -1 -32 5 -48 27 -71 32 -33 67
-137 67 -197 0 -37 -17 -80 -55 -145 -8 -14 -20 -44 -25 -67 -7 -29 -28 -61
-64 -100 -29 -32 -61 -72 -70 -90 -27 -53 -21 -118 18 -192 25 -49 37 -89 45
-156 20 -146 29 -172 80 -222 65 -63 99 -76 167 -64 30 6 77 22 104 35 63 32
156 100 174 129 8 12 21 64 30 116 11 65 25 111 47 149 19 34 36 84 44 134 9
50 26 99 45 132 21 38 30 67 30 98 0 35 7 54 34 89 18 24 36 53 39 64 22 77
63 174 84 196 30 33 42 82 43 175 0 88 20 158 65 223 30 43 35 59 35 106 0 61
16 78 51 57 32 -20 39 -14 38 31 -1 23 1 63 6 88 6 37 3 53 -14 88 -19 37 -22
55 -19 154 3 100 1 116 -19 147 -11 19 -27 54 -34 78 -12 43 -40 72 -68 72 -7
0 -29 -16 -47 -36z"/>
<path d="M12473 2578 c-19 -9 -43 -54 -43 -79 0 -22 32 -5 64 33 27 31 33 44
24 50 -16 9 -17 9 -45 -4z"/>
<path d="M12107 2413 c-17 -16 -5 -33 23 -33 23 0 30 4 30 20 0 14 -7 20 -23
20 -13 0 -27 -3 -30 -7z"/>
</g>
</svg>
